<svg xmlns="http://www.w3.org/2000/svg" viewBox="0 0 420 80" role="img" aria-labelledby="logoTitle logoDesc">
  <title id="logoTitle">MapAnalyst 2.0</title>
  <desc id="logoDesc">A stylized folded map with a location pin next to the MapAnalyst 2.0 wordmark.</desc>
  <defs>
    <linearGradient id="panelFill" x1="0%" y1="0%" x2="100%" y2="100%">
      <stop offset="0%" stop-color="#f7fafc" />
      <stop offset="100%" stop-color="#d9e7f1" />
    </linearGradient>
    <linearGradient id="pinFill" x1="0%" y1="0%" x2="100%" y2="100%">
      <stop offset="0%" stop-color="#22c55e" />
      <stop offset="100%" stop-color="#0f766e" />
    </linearGradient>
  </defs>

  <g transform="translate(4 6)">
    <path d="M8 52L20 12L36 18L52 8L68 14L62 56L46 50L30 60Z" fill="url(#panelFill)" stroke="#12344d" stroke-width="3" stroke-linejoin="round"/>
    <path d="M20 12L30 60" fill="none" stroke="#7c9ab1" stroke-width="2"/>
    <path d="M36 18L46 50" fill="none" stroke="#7c9ab1" stroke-width="2"/>
    <path d="M52 8L62 56" fill="none" stroke="#7c9ab1" stroke-width="2"/>
    <path d="M13 35H58" fill="none" stroke="#c1d2e0" stroke-width="2"/>
    <path d="M16 24L40 18L55 23" fill="none" stroke="#c1d2e0" stroke-width="2"/>
    <path d="M20 46L30 44L46 48L60 44" fill="none" stroke="#c1d2e0" stroke-width="2"/>
    <path d="M58 12C49 12 42 18.9 42 27.4C42 38.3 58 55 58 55C58 55 74 38.3 74 27.4C74 18.9 67 12 58 12Z" fill="url(#pinFill)" stroke="#0f3d3e" stroke-width="2.5"/>
    <circle cx="58" cy="28" r="5.5" fill="#ecfeff" />
  </g>

  <g transform="translate(94 0)">
    <text x="0" y="39" fill="#12344d" font-family="'Segoe UI', 'Trebuchet MS', sans-serif" font-size="31" font-weight="700" letter-spacing="0.4">MapAnalyst</text>
    <rect x="232" y="14" width="58" height="24" rx="12" fill="#12344d" />
    <text x="261" y="31" text-anchor="middle" fill="#ffffff" font-family="'Segoe UI', 'Trebuchet MS', sans-serif" font-size="14" font-weight="700">2.0</text>
    <path d="M1 52H290" stroke="#d1dde7" stroke-width="3" stroke-linecap="round" />
    <text x="0" y="68" fill="#5b7285" font-family="'Segoe UI', 'Trebuchet MS', sans-serif" font-size="12" font-weight="600" letter-spacing="1.2">HISTORICAL MAP ANALYSIS</text>
  </g>
</svg>
